<?xml version="1.0" encoding="UTF-8"?>
<svg id="Camada_2" xmlns="http://www.w3.org/2000/svg" viewBox="0 0 244.4 244.37">
  <defs>
    <style>
      .cls-1 {
        fill: #fff;
      }

      .cls-2 {
        opacity: .1;
      }
    </style>
  </defs>
  <g id="Camada_1-2" data-name="Camada_1">
    <g id="Camada_1-2">
      <g>
        <g>
          <path class="cls-1" d="M117.3,38.93c.83,2.61,3.65,15.05,3.65,15.05l4.62,21.06c.68-.47,10.69-11.21,10.69-11.21,6.36-6.1,10.51-10.82,10.51-10.82,6.67-7.16,7.65-20.29,7.65-20.29,2.33-12.21-2.59-28.69-2.72-29.12-9.45-2.34-19.32-3.59-29.49-3.59-5.83,0-11.57.42-17.18,1.21.96,2.88,5.2,15.24,5.2,15.24,1.53,4.17,7.09,22.48,7.09,22.48h0Z"/>
          <path class="cls-1" d="M174.47,11.73c0,.07,0,.13,0,.13l-.05,24.24,23.56-9.33s.21-.08.38-.12c-7.33-5.85-15.31-10.86-23.88-14.92h0Z"/>
          <path class="cls-1" d="M215.12,42.86c-2.93.58-18.03,5.7-18.03,5.7-35.17,12.09-53.11,35.6-53.11,35.6-8.91,10.16-13.92,23.87-13.92,23.87-1.77,5.99-.2,9.12-.2,9.12,16.47-12.3,41.3-21.96,41.3-21.96,7.99-3.34,20.85-6.81,20.85-6.81,14.04-4.24,43.85-8.9,43.85-8.9.01.02.02.05.03.07.27-.06.53-.1.79-.1-5.04-13.49-12.39-25.85-21.58-36.59h0Z"/>
          <path class="cls-1" d="M41.49,30.45c-6.09,5.36-11.64,11.32-16.57,17.79l23.5,8.71-6.94-26.49Z"/>
          <path class="cls-1" d="M69.84,57.14c.45,1.53,4.73,12.68,4.73,12.68,1.32,3.16,2.85,3.88,2.85,3.88,4.69,3.23,12.69,9.96,12.69,9.96,4.86,3.96,17.75,18.87,17.75,18.87l.36-.73c-.1-.6-.85-5.57-.85-5.57-.83-6.26-6.55-39.81-6.55-39.81-.94-6.88-4.4-18.96-4.4-18.96-1.46-5.28-4.1-12.32-4.1-12.32-2.62-7.6-6.73-16.48-7.99-19.16-8.75,2.85-17.06,6.66-24.82,11.3.78,4.4,3.62,17.39,3.62,17.39,2.82,11.26,6.71,22.45,6.71,22.45h0Z"/>
          <path class="cls-1" d="M99.3,126.64c-1.88-3.44-4.48-2.61-4.48-2.61-37.11,2.92-59.42,16.78-59.42,16.78-14.8,8.44-25.17,17.96-28.69,21.39,14.71,42.47,52.18,74.3,97.83,80.92-.01-.05,5.3-56.6,5.3-56.6.57-4.07.43-17.1.43-17.1,1.46-23.14-10.96-42.79-10.96-42.79h0Z"/>
          <path class="cls-1" d="M244.39,123.29c0-.36.01-.72.01-1.08,0-7.96-.77-15.74-2.22-23.27-.27.05-.56.09-.87.09-.01,0-.02,0-.03,0-.15.04-.26,0-.26,0-3.06.28-13.55,2.15-13.55,2.15l-18.69,3.47,34.92,18.24s.62.33.7.4h0Z"/>
          <path class="cls-1" d="M174.29,117.46c-3.65-.52-6.57,1.15-6.57,1.15-7.16,2.82-15.74,7.92-15.74,7.92-9.49,5.56-18.31,13.59-18.31,13.59-3.79,3.06-3.16,6.57-3.16,6.57-.56,8.2-.56,23.77-.56,23.77-.56,36.83-5.37,73.18-5.37,73.18,0,0-.03.64-.03.73,57.71-1.09,105.63-42.18,117.19-96.71-14.59-12.93-37.15-22.31-37.15-22.31-13.76-5.63-30.3-7.89-30.3-7.89h0ZM241.65,147.59s-.03-.02,0,0h0Z"/>
          <path class="cls-1" d="M82.83,104.85c-1.88-2.15-10.48-11.47-26.32-20.95-15.85-9.49-32.53-14.75-32.53-14.75-4.93-1.75-8.77-2.77-10.31-3.16C4.94,82.82,0,101.93,0,122.2c0,6.15.46,12.2,1.34,18.11,26.36-21.78,46.33-26.99,46.33-26.99,13.07-5.28,35.17-8.48,35.17-8.48h0Z"/>
        </g>
        <g class="cls-2">
          <g>
            <path class="cls-1" d="M117.3,38.93c.83,2.61,3.65,15.05,3.65,15.05l4.62,21.06c.68-.47,10.69-11.21,10.69-11.21,6.36-6.1,10.51-10.82,10.51-10.82,6.67-7.16,7.65-20.29,7.65-20.29,2.33-12.21-2.59-28.69-2.72-29.12-9.45-2.34-19.32-3.59-29.49-3.59-5.83,0-11.57.42-17.18,1.21.96,2.88,5.2,15.24,5.2,15.24,1.53,4.17,7.09,22.48,7.09,22.48h0Z"/>
            <path class="cls-1" d="M174.47,11.73c0,.07,0,.13,0,.13l-.05,24.24,23.56-9.33s.21-.08.38-.12c-7.33-5.85-15.31-10.86-23.88-14.92h0Z"/>
            <path class="cls-1" d="M215.12,42.86c-2.93.58-18.03,5.7-18.03,5.7-35.17,12.09-53.11,35.6-53.11,35.6-8.91,10.16-13.92,23.87-13.92,23.87-1.77,5.99-.2,9.12-.2,9.12,16.47-12.3,41.3-21.96,41.3-21.96,7.99-3.34,20.85-6.81,20.85-6.81,14.04-4.24,43.85-8.9,43.85-8.9.01.02.02.05.03.07.27-.06.53-.1.79-.1-5.04-13.49-12.39-25.85-21.58-36.59h0Z"/>
            <path class="cls-1" d="M41.49,30.45c-6.09,5.36-11.64,11.32-16.57,17.79l23.5,8.71-6.94-26.49Z"/>
            <path class="cls-1" d="M69.84,57.14c.45,1.53,4.73,12.68,4.73,12.68,1.32,3.16,2.85,3.88,2.85,3.88,4.69,3.23,12.69,9.96,12.69,9.96,4.86,3.96,17.75,18.87,17.75,18.87l.36-.73c-.1-.6-.85-5.57-.85-5.57-.83-6.26-6.55-39.81-6.55-39.81-.94-6.88-4.4-18.96-4.4-18.96-1.46-5.28-4.1-12.32-4.1-12.32-2.62-7.6-6.73-16.48-7.99-19.16-8.75,2.85-17.06,6.66-24.82,11.3.78,4.4,3.62,17.39,3.62,17.39,2.82,11.26,6.71,22.45,6.71,22.45h0Z"/>
            <path class="cls-1" d="M99.3,126.64c-1.88-3.44-4.48-2.61-4.48-2.61-37.11,2.92-59.42,16.78-59.42,16.78-14.8,8.44-25.17,17.96-28.69,21.39,14.71,42.47,52.18,74.3,97.83,80.92-.01-.05,5.3-56.6,5.3-56.6.57-4.07.43-17.1.43-17.1,1.46-23.14-10.96-42.79-10.96-42.79h0Z"/>
            <path class="cls-1" d="M244.39,123.29c0-.36.01-.72.01-1.08,0-7.96-.77-15.74-2.22-23.27-.27.05-.56.09-.87.09-.01,0-.02,0-.03,0-.15.04-.26,0-.26,0-3.06.28-13.55,2.15-13.55,2.15l-18.69,3.47,34.92,18.24s.62.33.7.4h0Z"/>
            <path class="cls-1" d="M174.29,117.46c-3.65-.52-6.57,1.15-6.57,1.15-7.16,2.82-15.74,7.92-15.74,7.92-9.49,5.56-18.31,13.59-18.31,13.59-3.79,3.06-3.16,6.57-3.16,6.57-.56,8.2-.56,23.77-.56,23.77-.56,36.83-5.37,73.18-5.37,73.18,0,0-.03.64-.03.73,57.71-1.09,105.63-42.18,117.19-96.71-14.59-12.93-37.15-22.31-37.15-22.31-13.76-5.63-30.3-7.89-30.3-7.89h0ZM241.65,147.59s-.03-.02,0,0h0Z"/>
            <path class="cls-1" d="M82.83,104.85c-1.88-2.15-10.48-11.47-26.32-20.95-15.85-9.49-32.53-14.75-32.53-14.75-4.93-1.75-8.77-2.77-10.31-3.16C4.94,82.82,0,101.93,0,122.2c0,6.15.46,12.2,1.34,18.11,26.36-21.78,46.33-26.99,46.33-26.99,13.07-5.28,35.17-8.48,35.17-8.48h0Z"/>
          </g>
        </g>
      </g>
    </g>
  </g>
</svg>