<?xml version="1.0" encoding="UTF-8"?>
<svg id="Camada_2" xmlns="http://www.w3.org/2000/svg" viewBox="0 0 106.17 106.26">
  <g id="Camada_1-2" data-name="Camada_1">
    <path d="M105.99,47.14c-.22-3.86-3.29-6.97-7.12-7.57-1.46-.23-2.92-.13-4.38-.13-1.56,0-2.65-.69-3.27-2.1-.63-1.44-.32-2.71.76-3.81.81-.83,1.66-1.63,2.45-2.48,3.13-3.36,3.16-8.36-.01-11.69-2.43-2.55-4.93-5.04-7.47-7.47-3.41-3.26-8.43-3.21-11.85.04-.82.77-1.58,1.61-2.4,2.37-1.08,1.01-2.36,1.31-3.73.72-1.36-.58-2.09-1.67-2.12-3.16-.03-1.12,0-2.25-.01-3.37-.07-4.1-2.88-7.5-6.9-8.26-2.23-.43-4.49-.06-6.2-.18-2.37,0-4.2-.04-6.04,0-4.08.1-7.5,3.17-8.12,7.21-.22,1.46-.13,2.92-.13,4.38,0,1.6-.65,2.74-2.12,3.37-1.45.63-2.7.32-3.97-.94-.69-.69-1.36-1.4-2.06-2.08-3.52-3.4-8.59-3.43-12.1-.01-2.42,2.35-4.81,4.74-7.16,7.15-3.38,3.47-3.39,8.49-.06,12.03.72.76,1.49,1.48,2.22,2.23,1.13,1.16,1.46,2.58.84,3.9-.64,1.38-1.76,2.09-3.3,2.09-1.16,0-2.32-.02-3.49.02C3.8,39.53.12,43.18.05,47.63c-.06,3.64-.06,7.27,0,10.91.07,4.08,3.18,7.5,7.21,8.11,1.5.23,2.99.13,4.49.13,1.51,0,2.58.63,3.2,2.02.64,1.44.33,2.7-.73,3.81-.8.84-1.63,1.66-2.41,2.51-3.17,3.44-3.17,8.4.07,11.77,2.41,2.51,4.88,4.98,7.4,7.39,3.34,3.21,8.25,3.24,11.69.13.86-.78,1.66-1.63,2.48-2.44,1.1-1.08,2.39-1.41,3.81-.81,1.41.59,2.12,1.72,2.14,3.26.01,1.12-.01,2.25.01,3.37.09,4.18,3.18,7.77,7.36,8.18,4.07.4,8.18.36,12.24.04,4.55-.36,7.56-3.86,7.68-8.44.03-1.09-.02-2.18.02-3.26.06-1.49.79-2.55,2.18-3.12,1.4-.57,2.64-.29,3.71.76.81.78,1.58,1.61,2.4,2.37,3.54,3.31,8.56,3.29,12.03-.09,2.39-2.33,4.74-4.69,7.08-7.08,3.43-3.5,3.46-8.54.1-12.11-.74-.79-1.54-1.53-2.3-2.32-1.04-1.07-1.32-2.34-.76-3.72.58-1.43,1.7-2.14,3.24-2.17,1.16-.02,2.32.02,3.49-.02,4.26-.13,7.88-3.43,8.14-7.66.25-4,.24-8.02,0-12.02ZM53.06,77.19c-13.16,0-24.03-10.8-24.03-23.88,0-13.62,10.67-24.28,24.29-24.28,13.08,0,23.87,10.87,23.87,24.03,0,13.35-10.78,24.12-24.13,24.12Z"/>
  </g>
</svg>