<?xml version="1.0" encoding="UTF-8"?>
<svg id="Camada_2" xmlns="http://www.w3.org/2000/svg" viewBox="0 0 109.58 109.58">
  <g id="Camada_1-2" data-name="Camada_1">
    <g>
      <path d="M0,80.04c.41-.56.37-1.26.55-1.89,1.32-4.58,4.27-7.99,7.86-10.92,3.41-2.79,7.24-4.89,11.25-6.7.44-.2.65-.2.89.28,1.5,3.03,3.04,6.04,4.91,8.86.41.61-.11.62-.42.75-2.72,1.16-5.37,2.44-7.85,4.06-1.83,1.19-3.57,2.49-4.89,4.26-1.81,2.42-1.81,4.54.07,6.91,2.41,3.05,5.69,4.92,9.13,6.52,6.51,3.04,13.41,4.69,20.5,5.62,6.24.82,12.5,1.05,18.78.64,10.06-.65,19.84-2.47,28.93-7.07,2.33-1.18,4.51-2.58,6.37-4.44,3.38-3.37,3.36-6.36-.14-9.62-3.18-2.97-7.07-4.73-11.09-6.23-.84-.31-1.02-.5-.48-1.32,1.72-2.58,3.15-5.33,4.47-8.12.34-.72.67-.75,1.35-.46,4.53,1.88,8.8,4.2,12.49,7.48,3.06,2.73,5.49,5.91,6.44,9.98,1.35,5.81-.38,10.84-4.24,15.21-3.74,4.23-8.53,6.95-13.66,9.09-7.54,3.16-15.45,4.85-23.54,5.81-7.06.84-14.15,1.08-21.24.6-10.63-.73-20.96-2.7-30.59-7.47-5.23-2.59-9.92-5.89-13.17-10.9-1.21-1.87-2.02-3.91-2.45-6.1-.04-.2.03-.44-.23-.54v-4.28Z"/>
      <path d="M87.39,28.59c-1.84-13.48-12.03-24.79-25.29-27.74-1.43-.32-2.88-.57-4.32-.85h-.64c-.14.13-.29.13-.43,0h-3.85c-.14.13-.29.13-.43,0h-.86c-.06.23-.26.19-.43.21-11.73,1.59-20.39,7.65-25.79,18.14-3.05,5.93-4.29,12.29-2.9,18.95,1.16,5.55,3.51,10.66,6.1,15.65,7.26,14.02,16.25,26.93,25.7,39.53.65.86.84.25,1.16-.18,5.36-7.07,10.48-14.31,15.29-21.76,5.15-7.99,10.03-16.13,13.7-24.93,2.27-5.44,3.79-10.97,2.97-17.02ZM54.81,43.84c-5.99.02-10.95-4.93-10.97-10.94-.01-6.03,4.88-10.96,10.91-10.99,5.99-.04,10.95,4.91,10.97,10.94.01,6.02-4.9,10.98-10.91,11Z"/>
    </g>
  </g>
</svg>