<?xml version="1.0" encoding="UTF-8"?>
<svg id="Camada_2" xmlns="http://www.w3.org/2000/svg" viewBox="0 0 115.3 96.99">
  <g id="Camada_1-2" data-name="Camada_1">
    <path d="M114.95,17.34C112.91,6.97,104.46.01,93.89,0,69.72,0,45.55,0,21.38,0,9.3.01.02,9.28,0,21.35,0,39.45,0,57.56,0,75.67c0,1.34.08,2.67.34,3.98,2.05,10.36,10.51,17.32,21.07,17.33,12.08.01,24.17,0,36.25,0s24.17.01,36.25,0c12.08-.01,21.36-9.27,21.37-21.34.02-18.11,0-36.21,0-54.32,0-1.34-.08-2.67-.34-3.98ZM43.42,78.68c-8.88,0-17.75,0-26.63,0-2.29,0-3.72-2.01-2.78-3.91.56-1.14,1.55-1.59,2.81-1.58,4.46.02,8.91,0,13.37,0,4.42,0,8.84,0,13.26,0,1.98,0,3.23,1.08,3.22,2.75,0,1.67-1.26,2.73-3.24,2.73ZM71.35,78.67c-1.52.04-3.05,0-4.57,0-1.48,0-2.97.02-4.45,0-1.68-.03-2.87-1.22-2.85-2.78.02-1.51,1.2-2.68,2.82-2.69,3.01-.03,6.02-.03,9.02,0,1.61.02,2.78,1.21,2.79,2.72,0,1.51-1.16,2.71-2.76,2.75ZM108.77,37.54c-17.04-.03-34.08-.02-51.12-.02s-34,0-51.01.02c-.95,0-1.18-.21-1.17-1.17.06-4.8.04-9.61,0-14.41,0-.75.19-.93.93-.93,34.16.02,68.31.02,102.47,0,.74,0,.94.18.94.93-.04,4.84-.04,9.68,0,14.52,0,.85-.2,1.05-1.05,1.05Z"/>
  </g>
</svg>