<?xml version="1.0" encoding="UTF-8"?>
<svg id="Camada_2" xmlns="http://www.w3.org/2000/svg" viewBox="0 0 104.06 119.04">
  <defs>
    <style>
      .cls-1 {
        fill: #1c1c1b;
      }
    </style>
  </defs>
  <g id="Camada_1-2" data-name="Camada_1">
    <g>
      <path class="cls-1" d="M65.93,59.51c0,14.92.01,29.85,0,44.77,0,7.12-3.96,12.52-10.36,14.27-8.27,2.26-16.73-3.63-17.44-12.15-.07-.78-.1-1.56-.1-2.34,0-29.69,0-59.38,0-89.07,0-7.39,3.83-12.7,10.44-14.5,8.19-2.24,16.64,3.63,17.35,12.08.08.93.11,1.88.11,2.81,0,14.71,0,29.43,0,44.14Z"/>
      <path class="cls-1" d="M27.95,79.48c0,8.4.04,16.8-.01,25.2-.05,8.29-6.15,14.44-14.12,14.35-7.81-.09-13.75-6.35-13.76-14.59-.02-14.04-.03-28.07,0-42.11,0-3.54-.25-7.1.19-10.63.89-7.1,7.1-12.23,14.44-11.96,7.03.26,13.02,5.97,13.16,12.98.18,8.92.04,17.84.04,26.77.02,0,.03,0,.05,0Z"/>
      <path class="cls-1" d="M76.04,99.16c.05-2.81-.34-5.66.2-8.44,1.3-6.74,7.3-11.58,13.92-11.37,7.13.22,12.88,5.33,13.55,12.46.47,5.03.49,10.12-.04,15.16-.75,7.1-7.08,12.3-14.37,12.05-7.06-.25-12.94-6.03-13.24-13.13-.1-2.24-.02-4.49-.02-6.73Z"/>
    </g>
  </g>
</svg>