<?xml version="1.0" encoding="UTF-8"?>
<svg id="Camada_2" xmlns="http://www.w3.org/2000/svg" viewBox="0 0 127.34 115.18">
  <defs>
    <style>
      .cls-1 {
        fill: #1c1c1b;
      }
    </style>
  </defs>
  <g id="Camada_1-2" data-name="Camada_1">
    <path class="cls-1" d="M13.22,84.35c0-7.21-.05-14.43.04-21.64.02-1.52-.4-2.01-1.87-1.82-.83.11-1.7.04-2.54,0-4.05-.18-7.18-2.44-8.37-6.03-1.19-3.6-.16-7.03,2.98-9.67,6.05-5.1,12.13-10.18,18.2-15.26,10.02-8.4,20.06-16.79,30.08-25.2,7.53-6.31,16.34-6.33,23.89,0,15.93,13.35,31.86,26.7,47.79,40.05,3.58,3,4.74,6.5,3.38,10.29-1.34,3.76-4.52,5.78-9.17,5.82q-3.5.03-3.5,3.52c0,13.58,0,27.16,0,40.74,0,6.5-3.46,9.97-9.92,9.97-7.28,0-14.57-.04-21.85.03-1.46.01-1.92-.37-1.91-1.87.07-8.91.07-17.82.02-26.73-.05-8.95-5.24-15.53-13.54-17.31-9.36-2.01-19,4.85-19.82,14.38-.65,7.61-.13,15.27-.23,22.9-.03,2.26-.06,4.53.02,6.79.05,1.29-.19,1.87-1.71,1.85-7.64-.08-15.28.02-22.91-.06-5.39-.05-9.01-3.74-9.04-9.13-.04-7.21-.01-14.43-.01-21.64Z"/>
  </g>
</svg>