<?xml version="1.0" encoding="UTF-8"?>
<svg id="Camada_2" xmlns="http://www.w3.org/2000/svg" viewBox="0 0 104.88 125.76">
  <g id="Camada_1-2" data-name="Camada_1">
    <g>
      <path d="M54.51,0c1.29.48,2.7.39,4.02.75,12.31,3.37,20.16,11.2,22.82,23.69,3.22,15.1-5.97,30.46-20.8,34.83-18.45,5.44-35.35-6.35-38.6-22.98C18.5,18.63,30,4.9,43.32,1.14c1.66-.47,3.37-.76,5.05-1.14.33,0,.66,0,.98,0C49.51.15,49.68.15,49.84,0h3.44C53.44.15,53.61.15,53.77,0h.74Z"/>
      <path d="M52.43,125.76c-9.99,0-19.97,0-29.96,0-5.1,0-9.9-1.03-14.12-4.06-4.75-3.42-7.57-8.09-8.07-13.86-.91-10.44.31-20.68,4.23-30.44,2.33-5.79,5.81-10.77,11.54-13.83,3.58-1.91,7.41-2.74,11.42-2.82,1.39-.03,2.62.58,3.77,1.3,1.84,1.15,3.63,2.35,5.48,3.49,10.47,6.43,20.96,6.44,31.42-.01,1.46-.9,2.94-1.78,4.31-2.8,2.5-1.87,5.25-2.18,8.25-1.75,8.14,1.18,13.94,5.59,17.84,12.71,3.51,6.39,4.99,13.33,5.82,20.48.42,3.66.55,7.34.48,11.03-.23,11.08-7.77,19.23-18.8,20.38-1.43.15-2.85.21-4.29.21-9.78,0-19.56,0-29.34,0Z"/>
    </g>
  </g>
</svg>